<?xml version="1.0" encoding="iso-8859-1"?>
<!-- Uploaded to: SVG Repo, www.svgrepo.com, Generator: SVG Repo Mixer Tools -->
<svg fill="#555" height="800px" width="800px" version="1.1" id="Layer_1" xmlns="http://www.w3.org/2000/svg" xmlns:xlink="http://www.w3.org/1999/xlink" 
	 viewBox="0 0 512 512" xml:space="preserve">
<g>
	<g>
		<path d="M256,0C114.836,0,0,114.836,0,256c0,55.849,17.988,107.567,48.454,149.692c0.197,0.897,0.479,1.781,0.94,2.625
			c0.945,1.719,2.332,3.026,3.937,3.897C100.187,472.863,173.601,512,256,512c141.163,0,256-114.837,256-256
			C512,114.836,397.163,0,256,0z M256,492.308c-73.255,0-138.832-33.507-182.212-86.003c47.187-24.817,128.284-62.291,129.164-62.7
			c2.423-1.115,4.289-3.173,5.163-5.683c0.885-2.519,0.712-5.279-0.481-7.663c-13.144-26.289-44.01-102.615-29.202-139.635
			c0.289-0.721,0.491-1.481,0.606-2.26l9.606-67.231c3.702-6.663,14.154-21.327,26.029-22.587
			c7.923-0.808,16.625,4.462,25.692,15.808c1.875,2.336,4.702,3.692,7.692,3.692c3.212,0,78.769,1.01,78.769,88.615
			c0,1.058,0.173,2.106,0.51,3.115l9.846,29.538c0.077,0.24,7.625,24.048-17.317,49c-1.077,1.077-1.894,2.394-2.375,3.846
			l-9.846,29.539c-1.183,3.538-0.259,7.442,2.375,10.077c2.389,2.399,57.406,56.853,124.505,78.882
			C391.163,460.644,327.209,492.308,256,492.308z M328.308,321.99l7.144-21.452c31.423-32.904,20.885-66.029,20.404-67.452
			l-9.346-28.048c-0.846-91.683-73.894-104.587-93.606-106.394c-12.712-14.538-26.241-21.163-40.308-19.683
			c-25.587,2.712-40.635,31.423-42.269,34.683c-0.471,0.942-0.788,1.961-0.942,3.01l-9.683,67.808
			c-16.635,44.202,14.115,119.308,25.99,145.452c-23.195,10.813-85.772,40.233-123.95,60.479
			c-26.495-38.183-42.05-84.5-42.05-134.392c0-130.298,106.01-236.308,236.308-236.308S492.308,125.702,492.308,256
			c0,51.517-16.584,99.228-44.676,138.101C392.462,378.32,342.937,335.498,328.308,321.99z"/>
	</g>
</g>
</svg>