<svg id="visual" viewBox="0 0 900 600" width="900" height="600" xmlns="http://www.w3.org/2000/svg" xmlns:xlink="http://www.w3.org/1999/xlink" version="1.1"><rect x="0" y="0" width="900" height="600" fill="#001220"></rect><path d="M0 422L21.5 420.3C43 418.7 86 415.3 128.8 413.8C171.7 412.3 214.3 412.7 257.2 409.8C300 407 343 401 385.8 389.5C428.7 378 471.3 361 514.2 353.2C557 345.3 600 346.7 642.8 357.7C685.7 368.7 728.3 389.3 771.2 396.7C814 404 857 398 878.5 395L900 392L900 601L878.5 601C857 601 814 601 771.2 601C728.3 601 685.7 601 642.8 601C600 601 557 601 514.2 601C471.3 601 428.7 601 385.8 601C343 601 300 601 257.2 601C214.3 601 171.7 601 128.8 601C86 601 43 601 21.5 601L0 601Z" fill="#fa7268"></path><path d="M0 392L21.5 393.7C43 395.3 86 398.7 128.8 407C171.7 415.3 214.3 428.7 257.2 434.7C300 440.7 343 439.3 385.8 434.3C428.7 429.3 471.3 420.7 514.2 419.5C557 418.3 600 424.7 642.8 424.2C685.7 423.7 728.3 416.3 771.2 412.2C814 408 857 407 878.5 406.5L900 406L900 601L878.5 601C857 601 814 601 771.2 601C728.3 601 685.7 601 642.8 601C600 601 557 601 514.2 601C471.3 601 428.7 601 385.8 601C343 601 300 601 257.2 601C214.3 601 171.7 601 128.8 601C86 601 43 601 21.5 601L0 601Z" fill="#f16367"></path><path d="M0 444L21.5 440.3C43 436.7 86 429.3 128.8 436.2C171.7 443 214.3 464 257.2 470.7C300 477.3 343 469.7 385.8 465.2C428.7 460.7 471.3 459.3 514.2 456.8C557 454.3 600 450.7 642.8 445.3C685.7 440 728.3 433 771.2 431C814 429 857 432 878.5 433.5L900 435L900 601L878.5 601C857 601 814 601 771.2 601C728.3 601 685.7 601 642.8 601C600 601 557 601 514.2 601C471.3 601 428.7 601 385.8 601C343 601 300 601 257.2 601C214.3 601 171.7 601 128.8 601C86 601 43 601 21.5 601L0 601Z" fill="#e85467"></path><path d="M0 472L21.5 473.8C43 475.7 86 479.3 128.8 480.7C171.7 482 214.3 481 257.2 482.8C300 484.7 343 489.3 385.8 485.7C428.7 482 471.3 470 514.2 470.5C557 471 600 484 642.8 493.5C685.7 503 728.3 509 771.2 511.2C814 513.3 857 511.7 878.5 510.8L900 510L900 601L878.5 601C857 601 814 601 771.2 601C728.3 601 685.7 601 642.8 601C600 601 557 601 514.2 601C471.3 601 428.7 601 385.8 601C343 601 300 601 257.2 601C214.3 601 171.7 601 128.8 601C86 601 43 601 21.5 601L0 601Z" fill="#de4467"></path><path d="M0 545L21.5 539.8C43 534.7 86 524.3 128.8 522.7C171.7 521 214.3 528 257.2 530.3C300 532.7 343 530.3 385.8 525C428.7 519.7 471.3 511.3 514.2 511.8C557 512.3 600 521.7 642.8 523.2C685.7 524.7 728.3 518.3 771.2 516.7C814 515 857 518 878.5 519.5L900 521L900 601L878.5 601C857 601 814 601 771.2 601C728.3 601 685.7 601 642.8 601C600 601 557 601 514.2 601C471.3 601 428.7 601 385.8 601C343 601 300 601 257.2 601C214.3 601 171.7 601 128.8 601C86 601 43 601 21.5 601L0 601Z" fill="#d23467"></path><path d="M0 553L21.5 555.8C43 558.7 86 564.3 128.8 564.8C171.7 565.3 214.3 560.7 257.2 558.3C300 556 343 556 385.8 554.8C428.7 553.7 471.3 551.3 514.2 554.2C557 557 600 565 642.8 566.5C685.7 568 728.3 563 771.2 560.8C814 558.7 857 559.3 878.5 559.7L900 560L900 601L878.5 601C857 601 814 601 771.2 601C728.3 601 685.7 601 642.8 601C600 601 557 601 514.2 601C471.3 601 428.7 601 385.8 601C343 601 300 601 257.2 601C214.3 601 171.7 601 128.8 601C86 601 43 601 21.5 601L0 601Z" fill="#c62368"></path></svg>