<?xml version="1.0" encoding="utf-8"?>
<!-- Uploaded to: SVG Repo, www.svgrepo.com, Generator: SVG Repo Mixer Tools -->
<svg width="800px" height="800px" viewBox="0 0 1024 1024" class="icon"  version="1.1" xmlns="http://www.w3.org/2000/svg"><path d="M805.137067 300.612267c-84.753067-290.895644-499.245511-290.895644-583.9872 0a419.987911 419.987911 0 0 0-16.702578 117.6576c0 193.422222 130.753422 356.272356 308.690489 405.048889 177.925689-48.776533 308.690489-211.638044 308.690489-405.048889 0-40.846222-5.825422-80.327111-16.6912-117.6576z" fill="#FC583D" /><path d="M513.149156 393.454933m-189.929245 0a189.929244 189.929244 0 1 0 379.858489 0 189.929244 189.929244 0 1 0-379.858489 0Z" fill="#E6E6E6" /><path d="M405.879467 393.454933c0-90.692267 63.579022-166.525156 148.593777-185.389511a190.998756 190.998756 0 0 0-41.324088-4.516978c-104.891733 0-189.917867 85.026133-189.917867 189.917867 0 104.903111 85.037511 189.917867 189.917867 189.917867a190.919111 190.919111 0 0 0 41.324088-4.516978c-85.014756-18.875733-148.593778-94.708622-148.593777-185.412267z" fill="#CCCCCC" /><path d="M513.137778 273.681067l35.191466 71.327289 78.711467 11.434666-56.957155 55.523556 13.448533 78.392889-70.394311-37.011911-70.405689 37.011911 13.448533-78.392889-56.957155-55.523556 78.711466-11.434666z" fill="#FFCA6C" /><path d="M368.878933 517.791289a14.074311 14.074311 0 0 0 0 19.922489A202.660978 202.660978 0 0 0 513.137778 597.469867c112.492089 0 204.014933-91.511467 204.014933-204.003556S625.618489 189.451378 513.137778 189.451378c-112.492089 0-204.014933 91.511467-204.014934 204.014933a202.524444 202.524444 0 0 0 16.042667 79.405511 14.097067 14.097067 0 0 0 25.952711-10.979555 174.592 174.592 0 0 1-13.812622-68.437334c0-96.950044 78.882133-175.832178 175.832178-175.832177s175.843556 78.882133 175.843555 175.832177S610.087822 569.287111 513.137778 569.287111a174.671644 174.671644 0 0 1-124.324978-51.495822 14.085689 14.085689 0 0 0-19.933867 0zM720.270222 754.517333a14.097067 14.097067 0 0 0-15.758222 23.369956c14.734222 9.9328 32.290133 25.873067 32.290133 45.431467 0 21.7088-22.3232 43.986489-61.223822 61.110044-43.155911 19.000889-100.841244 29.468444-162.440533 29.468444-70.701511 0-138.422044-14.506667-181.1456-38.8096a14.074311 14.074311 0 1 0-13.9264 24.484978C365.545244 926.583467 436.644978 942.08 513.137778 942.08c65.422222 0 127.123911-11.309511 173.784178-31.8464 50.335289-22.163911 78.051556-53.020444 78.051555-86.914844 0-25.270044-15.4624-49.060978-44.703289-68.801423z" fill="" /><path d="M356.613689 759.7056c45.2608 35.475911 97.348267 61.997511 152.803555 77.198222 1.217422 0.329956 2.468978 0.512 3.720534 0.512 1.251556 0 2.503111-0.182044 3.731911-0.512 89.952711-24.655644 171.099022-79.086933 228.488533-153.247289 59.244089-76.572444 90.567111-168.3456 90.567111-265.398044 0-41.358222-5.814044-82.261333-17.271466-121.605689a332.333511 332.333511 0 0 0-34.770489-79.678578 14.085689 14.085689 0 1 0-24.086756 14.620445 304.674133 304.674133 0 0 1 31.800889 72.931555 406.664533 406.664533 0 0 1 16.156445 113.720889c0 90.749156-29.2864 176.548978-84.6848 248.137956-52.883911 68.369067-127.317333 118.795378-209.931378 142.301866-82.614044-23.506489-157.047467-73.9328-209.931378-142.279111-55.3984-71.588978-84.673422-157.3888-84.673422-248.137955 0-38.684444 5.4272-76.947911 16.145066-113.720889 28.888178-99.145956 101.467022-171.155911 199.133867-197.540978 100.317867-27.101867 207.655822-1.217422 280.086756 67.561244a14.097067 14.097067 0 0 0 19.410489-20.434488c-79.530667-75.502933-197.097244-103.981511-306.858667-74.331023-107.372089 29.013333-187.130311 108.054756-218.8288 216.871823A434.551467 434.551467 0 0 0 190.350222 418.269867c0 97.052444 31.323022 188.814222 90.567111 265.398044a432.810667 432.810667 0 0 0 51.689245 55.796622c-46.193778 21.856711-71.315911 51.154489-71.315911 83.854223 0 7.68 1.456356 15.348622 4.323555 22.766933a14.108444 14.108444 0 0 0 18.215822 8.055467c7.259022-2.810311 10.877156-10.968178 8.055467-18.2272a34.759111 34.759111 0 0 1-2.423467-12.5952c0.022756-22.846578 24.962844-46.318933 67.151645-63.613156z" fill="" /><path d="M640.455111 352.085333a14.108444 14.108444 0 0 0-11.377778-9.591466l-71.3728-10.365156-31.926044-64.694044a14.119822 14.119822 0 0 0-25.281422 0l-31.926045 64.694044-71.384178 10.365156a14.119822 14.119822 0 0 0-7.816533 24.041244l51.655111 50.346667-12.196978 71.099733a14.108444 14.108444 0 1 0 20.445867 14.859378l63.840711-33.564445 63.840711 33.564445a14.1312 14.1312 0 0 0 14.848-1.069511c4.334933-3.140267 6.508089-8.487822 5.597867-13.778489l-12.1856-71.088356 51.655111-50.358044c3.857067-3.754667 5.245156-9.352533 3.584-14.461156z m-80.190578 49.789156a14.006044 14.006044 0 0 0-4.050489 12.470044l8.612978 50.255645-45.135644-23.722667a14.040178 14.040178 0 0 0-13.1072 0l-45.135645 23.722667 8.612978-50.255645a14.074311 14.074311 0 0 0-4.050489-12.470044l-36.511289-35.589689 50.460445-7.338667a14.108444 14.108444 0 0 0 10.604089-7.702755l22.562133-45.727289 22.562133 45.727289c2.059378 4.152889 6.007467 7.042844 10.615467 7.702755l50.460444 7.338667-36.499911 35.589689z" fill="" /></svg>