<?xml version="1.0" encoding="utf-8"?>
<!-- Uploaded to: SVG Repo, www.svgrepo.com, Generator: SVG Repo Mixer Tools -->
<svg width="800px" height="800px" viewBox="0 0 1024 1024" class="icon"  version="1.1" xmlns="http://www.w3.org/2000/svg"><path d="M340.730311 651.0592a270.461156 269.937778 0 1 0 540.922311 0 270.461156 269.937778 0 1 0-540.922311 0Z" fill="#4D4D4D" /><path d="M455.645867 651.0592c0-129.399467 91.2384-237.511111 213.003377-263.816533a271.473778 271.473778 0 0 0-57.469155-6.132623c-149.367467 0-270.461156 120.854756-270.461156 269.937778 0 149.083022 121.093689 269.949156 270.461156 269.949156 19.729067 0 38.957511-2.139022 57.469155-6.132622-121.776356-26.282667-213.003378-134.405689-213.003377-263.805156z" fill="#333333" /><path d="M306.562844 78.5408c25.053867 0 69.586489 18.056533 69.586489 70.849422 0 52.781511-22.266311 117.373156-22.266311 192.375467 0 75.013689 91.8528 163.908267 91.8528 302.808178s-70.974578 276.423111-70.974578 276.423111H238.364444S167.389867 783.473778 167.389867 644.573867c0-138.899911 91.8528-227.794489 91.8528-302.808178 0-75.002311-22.277689-139.593956-22.277689-192.375467s44.544-70.849422 69.597866-70.849422z" fill="#F2F2F2" /><path d="M306.562844 78.552178c-8.021333 0-22.277689 18.045156-22.277688 70.838044 0 52.781511 7.133867 117.361778 7.133866 192.375467 0 75.002311-29.3888 163.908267-29.3888 302.7968 0 138.911289 22.710044 276.434489 22.710045 276.434489H238.364444S167.389867 783.473778 167.389867 644.562489c0-138.888533 91.8528-227.794489 91.8528-302.7968S236.987733 202.171733 236.987733 149.390222c0-52.792889 44.532622-70.838044 69.575111-70.838044z" fill="#E6E6E6" /><path d="M365.511111 234.461867c-2.946844 16.941511-5.927822 34.645333-8.146489 53.122844H255.806578c-2.218667-18.488889-5.199644-36.192711-8.169245-53.122844h117.873778zM380.666311 429.067378H232.504889c8.851911-18.773333 16.531911-36.374756 21.356089-53.122845h105.449244c4.8128 16.748089 12.504178 34.360889 21.356089 53.122845z" fill="#FC583D" /><path d="M253.860978 375.933156h35.84c-1.547378 16.748089-4.004978 34.360889-6.849422 53.122844H232.504889c8.851911-18.750578 16.531911-36.363378 21.356089-53.122844zM255.806578 287.596089c-2.218667-18.488889-5.199644-36.192711-8.169245-53.134222h40.083911c0.944356 16.941511 1.900089 34.645333 2.605512 53.134222H255.806578z" fill="#DB4531" /><path d="M402.761956 440.888889c-18.249956-37.944889-34.019556-70.724267-34.019556-99.1232 0-39.503644 6.291911-75.525689 12.367644-110.353067 5.085867-29.138489 9.898667-56.661333 9.898667-82.0224 0-35.271111-16.918756-55.853511-31.106844-66.901333C344.803556 70.724267 324.869689 63.715556 306.562844 63.715556c-18.306844 0-38.240711 7.008711-53.327644 18.761955-14.199467 11.0592-31.118222 31.6416-31.118222 66.912711 0 25.361067 4.801422 52.883911 9.898666 82.0224 6.075733 34.838756 12.367644 70.849422 12.367645 110.364445 0 28.398933-15.7696 61.166933-34.019556 99.1232-4.5056 9.375289-9.181867 19.080533-13.812622 29.149866a14.859378 14.859378 0 0 0 26.999467 12.3904c4.539733-9.853156 9.147733-19.433244 13.607822-28.706133l4.721778-9.8304H371.256889l4.7104 9.819022c25.736533 53.509689 54.909156 114.164622 54.909155 190.850845 0 114.835911-50.756267 230.582044-65.422222 261.575111H247.660089c-14.665956-30.993067-65.410844-146.568533-65.410845-261.575111 0-38.832356 7.247644-76.401778 22.823823-118.249245a14.859378 14.859378 0 1 0-27.864178-10.331022C160.597333 560.628622 152.530489 602.680889 152.530489 644.573867c0 140.868267 69.666133 277.469867 72.624355 283.204266 2.548622 4.949333 7.634489 8.044089 13.2096 8.044089h136.385423c5.563733 0 10.660978-3.106133 13.2096-8.044089 2.9696-5.7344 72.624356-142.324622 72.624355-283.204266 0.011378-83.444622-32.0512-150.1184-57.821866-203.684978z m-58.459023-168.118045h-75.480177a988.728889 988.728889 0 0 0-3.595378-23.472355h82.682311c-1.274311 7.645867-2.503111 15.4624-3.606756 23.472355z m-72.044089 29.661867h68.608a438.454044 438.454044 0 0 0-1.8432 39.344356c0 6.417067 0.580267 12.856889 1.6384 19.342222h-68.1984c1.058133-6.485333 1.6384-12.913778 1.6384-19.342222 0-13.459911-0.705422-26.578489-1.8432-39.344356z m-0.739555-196.562489c11.832889-9.216 26.271289-12.4928 35.043555-12.4928 14.199467 0 54.727111 10.285511 54.727112 56.0128 0 20.957867-3.8912 44.896711-8.2944 70.2464H260.130133c-4.4032-25.361067-8.2944-49.288533-8.2944-70.2464 0-18.705067 6.621867-33.348267 19.683556-43.52zM255.510756 414.242133a334.279111 334.279111 0 0 0 9.204622-23.460977h83.694933c2.651022 7.68 5.757156 15.485156 9.204622 23.460977H255.510756z" fill="" /><path d="M611.180089 366.2848c-64 0-124.472889 20.662044-174.8992 59.756089-6.485333 5.028978-7.645867 14.347378-2.616889 20.809955s14.370133 7.634489 20.855467 2.605512c45.1584-35.009422 99.328-53.521067 156.660622-53.521067 140.959289 0 255.613156 114.437689 255.613155 255.101155 0 84.878222-42.120533 163.965156-112.696888 211.547023a14.836622 14.836622 0 1 0 16.634311 24.587377A284.535467 284.535467 0 0 0 896.512 651.036444c0-157.001956-128-284.751644-285.331911-284.751644zM716.822756 883.427556a253.940622 253.940622 0 0 1-105.642667 22.7328c-56.376889 0-109.852444-17.954133-154.601245-51.928178a14.859378 14.859378 0 0 0-20.821333 2.821689 14.791111 14.791111 0 0 0 2.833067 20.775822c49.9712 37.956267 109.6704 58.003911 172.600889 58.003911 41.107911 0 80.804978-8.533333 117.942044-25.372444a14.836622 14.836622 0 0 0 7.384178-19.649423 14.893511 14.893511 0 0 0-19.694933-7.384177z" fill="" /><path d="M756.360533 533.7088c3.345067 5.199644 10.012444 7.634489 15.963023 6.144 6.030222-1.501867 10.5472-6.7584 11.184355-12.925156 1.308444-12.947911-14.256356-21.037511-24.223289-12.913777a14.939022 14.939022 0 0 0-2.924089 19.694933zM674.156089 563.370667c7.395556 11.0592 25.065244 7.088356 27.067733-6.0416a14.939022 14.939022 0 0 0-7.691378-15.2576 15.064178 15.064178 0 0 0-16.839111 1.979733 14.916267 14.916267 0 0 0-2.537244 19.319467zM750.887822 606.424178c12.379022 4.960711 24.928711-8.135111 19.023645-20.218311a15.018667 15.018667 0 0 0-13.824-8.2944 14.882133 14.882133 0 0 0-13.994667 11.559822 14.9504 14.9504 0 0 0 8.795022 16.952889z" fill="" /></svg>