<?xml version="1.0" encoding="utf-8"?>
<!-- Uploaded to: SVG Repo, www.svgrepo.com, Generator: SVG Repo Mixer Tools -->
<svg width="800px" height="800px" viewBox="0 0 1024 1024" class="icon"  version="1.1" xmlns="http://www.w3.org/2000/svg"><path d="M490.609778 225.052444c0 250.436267-177.231644 208.054044-173.385956 377.594312 1.706667 75.218489 51.837156 125.178311 117.111467 148.286577 18.625422 6.576356 35.555556-13.357511 26.385067-30.856533-26.908444-51.393422-44.714667-134.951822 60.700444-206.051556 4.767289 96.403911 84.775822 111.741156 84.775822 181.088712 0 8.760889-0.557511 16.645689-1.524622 23.7568-2.321067 17.1008 15.428267 29.934933 31.0272 22.528 54.863644-26.043733 97.120711-73.227378 105.346844-142.597689C768.022756 371.461689 490.609778 225.052444 490.609778 225.052444z" fill="#FFCA6C" /><path d="M520.248889 82.932622c-232.721067 0-421.387378 188.666311-421.387378 421.398756s188.666311 421.387378 421.387378 421.387378c232.732444 0 421.398756-188.666311 421.398755-421.387378 0-232.732444-188.666311-421.398756-421.398755-421.398756z m0 76.299378A343.643022 343.643022 0 0 1 735.800889 234.837333L250.766222 719.872a343.643022 343.643022 0 0 1-75.605333-215.540622c0-190.600533 154.498844-345.099378 345.088-345.099378z m0 690.187378a343.552 343.552 0 0 1-215.529245-75.616711l485.034667-485.023289a343.608889 343.608889 0 0 1 75.616711 215.540622c-0.011378 190.589156-154.5216 345.099378-345.122133 345.099378z" fill="#FC583D" /><path d="M884.849778 265.022578A436.599467 436.599467 0 0 0 700.051911 106.939733a14.677333 14.677333 0 0 0-12.105955 26.715023 407.2448 407.2448 0 0 1 172.396088 147.478755 405.003378 405.003378 0 0 1 66.639645 223.186489c0 224.278756-182.442667 406.721422-406.721422 406.721422-224.267378 0-406.7328-182.442667-406.7328-406.721422 0-224.267378 182.465422-406.7328 406.721422-406.7328 41.870222 0 83.1488 6.337422 122.6752 18.818844a14.654578 14.654578 0 1 0 8.829155-27.9552A436.030578 436.030578 0 0 0 520.248889 68.266667c-116.474311 0-225.974044 45.351822-308.337778 127.715555C129.558756 278.345956 84.195556 387.845689 84.195556 504.32s45.351822 225.974044 127.715555 308.349156c82.363733 82.352356 191.863467 127.715556 308.337778 127.715555s225.974044-45.351822 308.337778-127.715555c82.363733-82.363733 127.726933-191.863467 127.726933-308.349156 0-85.447111-24.712533-168.197689-71.463822-239.297422z" fill="" /><path d="M744.96 223.379911a360.732444 360.732444 0 0 0-224.711111-78.813867c-198.371556 0-359.753956 161.3824-359.753956 359.753956 0 82.614044 27.249778 160.324267 78.813867 224.711111 2.605511 3.254044 6.473956 5.245156 10.638222 5.472711l0.807822 0.022756c3.879822 0 7.611733-1.547378 10.376534-4.3008l485.034666-485.034667a14.677333 14.677333 0 0 0-1.206044-21.8112z m-110.034489 91.591111c-66.230044-64.898844-134.4512-101.284978-137.477689-102.877866a14.665956 14.665956 0 0 0-21.504 12.970666c0 77.323378-16.622933 131.970844-53.896533 177.174756a14.654578 14.654578 0 1 0 22.6304 18.648178c37.614933-45.624889 56.5248-98.963911 59.995022-170.587023 24.758044 15.36 67.879822 44.703289 109.511111 85.4016l-281.258666 281.258667a150.801067 150.801067 0 0 1-1.046756-14.6432c-1.604267-70.405689 29.354667-99.373511 68.551111-136.055467 4.209778-3.936711 8.453689-7.907556 12.708978-11.992177a14.654578 14.654578 0 1 0-20.286578-21.185423c-4.175644 3.9936-8.339911 7.896178-12.458667 11.753245-39.196444 36.681956-79.724089 74.604089-77.835377 158.116978 0.295822 13.5168 2.093511 26.612622 5.279289 39.071288l-55.6032 55.6032c-40.903111-56.456533-62.429867-122.948267-62.429867-193.319822 0-182.203733 148.229689-330.433422 330.433422-330.433422 70.382933 0 136.863289 21.538133 193.319822 62.429867l-78.631822 78.665955zM520.248889 834.753422c-12.0832 0-24.280178-0.671289-36.226845-1.956978a14.654578 14.654578 0 1 0-3.1744 29.161245c13.0048 1.410844 26.259911 2.139022 39.401245 2.139022 198.382933 0 359.765333-161.393778 359.765333-359.765333 0-82.614044-27.261156-160.324267-78.825244-224.711111a14.654578 14.654578 0 0 0-21.8112-1.206045L294.343111 763.448889a14.631822 14.631822 0 0 0 1.206045 21.8112 357.102933 357.102933 0 0 0 125.474133 64.955733 14.677333 14.677333 0 0 0 8.078222-28.194133 327.543467 327.543467 0 0 1-102.161067-49.698133l40.777956-40.789334c17.7152 13.789867 38.377244 24.962844 61.713067 33.223111a36.101689 36.101689 0 0 0 39.458133-10.456177 36.443022 36.443022 0 0 0 4.824178-41.005512c-12.367644-23.643022-18.716444-46.751289-18.944-68.801422l67.447466-67.447466c10.194489 21.128533 23.893333 37.341867 36.306489 52.041955 18.443378 21.822578 33.006933 39.059911 33.006934 66.036622 0 7.611733-0.477867 14.939022-1.388089 21.777067a36.317867 36.317867 0 0 0 14.586311 34.212978 36.590933 36.590933 0 0 0 37.250844 3.549866c65.137778-30.936178 105.483378-85.663289 113.607111-154.146133 8.237511-69.370311-9.568711-137.955556-52.8384-204.037689l85.481245-85.481244c40.903111 56.445156 62.429867 122.936889 62.429867 193.308444 0.034133 182.215111-148.206933 330.4448-330.410667 330.4448z m-72.510578-107.872711c2.082133 3.970844 0 7.054222-0.989867 8.203378a6.587733 6.587733 0 0 1-7.520711 2.036622c-19.069156-6.747022-36.010667-15.644444-50.5856-26.487467l39.378489-39.378488c3.345067 18.295467 9.921422 36.909511 19.717689 55.625955z m278.755556-129.809067c-8.840533 74.467556-57.662578 112.401067-97.063823 131.094756a7.133867 7.133867 0 0 1-7.3728-0.7168 6.826667 6.826667 0 0 1-2.844444-6.610489c1.115022-8.146489 1.661156-16.7936 1.661156-25.725155 0-37.705956-20.297956-61.724444-39.936-84.957867-13.687467-16.190578-27.773156-32.893156-36.420267-55.3984l137.045333-137.045333c36.9664 58.561422 52.098844 118.818133 44.930845 179.359288z" fill="" /></svg>