<?xml version="1.0" encoding="utf-8"?>

<!DOCTYPE svg PUBLIC "-//W3C//DTD SVG 1.0//EN" "http://www.w3.org/TR/2001/REC-SVG-20010904/DTD/svg10.dtd">
<!-- Uploaded to: SVG Repo, www.svgrepo.com, Generator: SVG Repo Mixer Tools -->
<svg version="1.0" id="Layer_1" xmlns="http://www.w3.org/2000/svg" xmlns:xlink="http://www.w3.org/1999/xlink" 
	 width="800px" height="800px" viewBox="0 0 64 64" enable-background="new 0 0 64 64" xml:space="preserve">
<g>
	<path fill="#231F20" d="M60,0H14c-2.211,0-4,1.789-4,4v27H4c-2.211,0-4,1.789-4,4v23c0,3.313,2.687,6,6,6h52c3.313,0,6-2.687,6-6V4
		C64,1.789,62.211,0,60,0z M2,58V35c0-1.104,0.896-2,2-2h6v25c0,2.209-1.791,4-4,4S2,60.209,2,58z M58,62H10.463
		C11.416,60.938,12,59.539,12,58V4c0-1.104,0.896-2,2-2h46c1.104,0,2,0.896,2,2v54C62,60.209,60.209,62,58,62z"/>
	<path fill="#231F20" d="M53,25H21c-0.553,0-1,0.447-1,1s0.447,1,1,1h32c0.553,0,1-0.447,1-1S53.553,25,53,25z"/>
	<path fill="#231F20" d="M53,19H21c-0.553,0-1,0.447-1,1s0.447,1,1,1h32c0.553,0,1-0.447,1-1S53.553,19,53,19z"/>
	<path fill="#231F20" d="M53,37H21c-0.553,0-1,0.447-1,1s0.447,1,1,1h32c0.553,0,1-0.447,1-1S53.553,37,53,37z"/>
	<path fill="#231F20" d="M53,43H21c-0.553,0-1,0.447-1,1s0.447,1,1,1h32c0.553,0,1-0.447,1-1S53.553,43,53,43z"/>
	<path fill="#231F20" d="M53,49H21c-0.553,0-1,0.447-1,1s0.447,1,1,1h32c0.553,0,1-0.447,1-1S53.553,49,53,49z"/>
	<path fill="#231F20" d="M53,31H21c-0.553,0-1,0.447-1,1s0.447,1,1,1h32c0.553,0,1-0.447,1-1S53.553,31,53,31z"/>
	<path fill="#231F20" d="M21,15h15c0.553,0,1-0.447,1-1s-0.447-1-1-1H21c-0.553,0-1,0.447-1,1S20.447,15,21,15z"/>
</g>
</svg>