<?xml version="1.0" encoding="utf-8"?>
<!-- Uploaded to: SVG Repo, www.svgrepo.com, Generator: SVG Repo Mixer Tools -->
<svg width="800px" height="800px" viewBox="0 0 1024 1024" class="icon"  version="1.1" xmlns="http://www.w3.org/2000/svg"><path d="M392.6016 91.909689l-26.112 751.240533H235.940978l44.578133-727.131022a717.198222 717.198222 0 0 1 112.082489-24.109511z" fill="#DB4531" /><path d="M693.134222 116.0192a716.686222 716.686222 0 0 0-412.615111 0l-44.578133 727.131022h501.782755L693.134222 116.0192z" fill="#FC583D" /><path d="M280.519111 116.0192l-113.789155 65.479111 99.794488 162.781867M704.546133 302.023111c101.808356 0 169.517511 99.976533 170.427734 218.259911a298.143289 298.143289 0 0 1-25.270045 122.595556c-5.848178 13.175467 11.275378 24.621511 21.219556 14.142578 50.414933-53.213867 81.464889-124.802844 81.908622-203.605334 0.8192-150.471111-111.638756-276.662044-257.274311-297.756444M806.934756 929.314133H166.729956l31.664355-86.163911h576.876089z" fill="#F2F2F2" /><path d="M198.394311 843.150222l-31.664355 86.163911h135.202133l31.664355-86.163911z" fill="#CCCCCC" /><path d="M392.6016 91.909689l-26.112 751.240533H235.940978l44.578133-727.131022a717.198222 717.198222 0 0 1 112.082489-24.109511z" fill="#DB4531" /><path d="M486.832356 715.639467a37.979022 37.979022 0 0 1-38.070045-37.899378v-406.641778a38.001778 38.001778 0 0 1 38.070045-37.910755 37.979022 37.979022 0 0 1 38.058666 37.910755v406.641778a37.979022 37.979022 0 0 1-38.058666 37.899378z" fill="#F2F2F2" /><path d="M856.041244 212.206933c-6.360178-5.381689-15.883378-4.596622-21.287822 1.729423s-4.619378 15.826489 1.729422 21.208177c64.796444 54.772622 101.705956 134.303289 101.239467 218.191645a282.328178 282.328178 0 0 1-69.404444 184.126578 311.569067 311.569067 0 0 0 21.754311-117.293512c-0.477867-61.929244-18.363733-119.591822-50.3808-162.372266-31.084089-41.540267-73.602844-66.104889-120.911645-70.200889l-6.9632-113.743645a283.295289 283.295289 0 0 1 78.165334 29.229512 15.121067 15.121067 0 0 0 20.548266-5.848178 15.018667 15.018667 0 0 0-5.882311-20.457245 312.911644 312.911644 0 0 0-94.731378-33.974044l-1.695288-27.693511a15.064178 15.064178 0 0 0-10.706489-13.494045 729.656889 729.656889 0 0 0-421.364623 0c-6.052978 1.820444-10.331022 7.202133-10.706488 13.494045l-0.147912 2.332444-106.120533 61.064534a14.995911 14.995911 0 0 0-5.347555 20.866844l96.756622 157.821156-11.116089 181.543822a15.109689 15.109689 0 0 0 30.162489 1.820444l25.099378-409.406578a15.701333 15.701333 0 0 0 0.841955-3.834311 699.312356 699.312356 0 0 1 383.146667 0.170667l42.951111 700.632178h-469.674667l13.505422-220.319289a15.064178 15.064178 0 0 0-14.165333-15.928889 15.075556 15.075556 0 0 0-15.997155 14.097067l-13.607823 222.139733h-23.324444a15.132444 15.132444 0 0 0-14.188089 9.864533l-31.675733 86.152534c-1.695289 4.619378-1.024 9.762133 1.809066 13.801244a15.132444 15.132444 0 0 0 12.379023 6.428445h483.953777c8.351289 0 15.109689-6.735644 15.109689-15.041423s-6.7584-15.041422-15.109689-15.041422H188.347733l20.605156-56.069689H764.700444l20.616534 56.069689h-74.194489c-8.339911 0-15.109689 6.735644-15.109689 15.041422S702.782578 944.355556 711.122489 944.355556h95.812267c4.937956 0 9.557333-2.400711 12.379022-6.417067 2.821689-4.027733 3.504356-9.181867 1.797689-13.801245l-31.664356-86.152533a15.086933 15.086933 0 0 0-14.176711-9.864533h-23.335822L720.668444 318.020267c46.239289 5.449956 76.788622 33.678222 94.8224 57.776355 28.194133 37.6832 43.952356 89.031111 44.373334 144.600178 0.284444 40.470756-7.7824 79.644444-23.972978 116.406044-5.620622 12.674844-1.422222 26.897067 10.194489 34.588445 4.869689 3.208533 10.274133 4.778667 15.633067 4.778667 7.384178 0 14.677333-3.003733 20.184177-8.817778a312.4224 312.4224 0 0 0 86.038756-213.845334c0.512-92.797156-40.277333-180.747378-111.900445-241.299911z m-668.353422-15.36l75.389156-43.383466-9.261511 151.233422-66.127645-107.849956z" fill="" /><path d="M540.000711 677.740089v-406.641778c0-29.195378-23.847822-52.952178-53.168355-52.952178s-53.168356 23.7568-53.168356 52.952178v406.641778c0 29.184 23.847822 52.9408 53.168356 52.9408 29.320533 0.011378 53.168356-23.745422 53.168355-52.9408z m-30.208-188.859733H463.872v-63.1808h45.920711v63.1808z m0-93.275023H463.872v-63.1808h45.920711v63.1808zM463.872 518.9632h45.920711v63.192178H463.872v-63.192178z m22.960356-270.722844c12.663467 0 22.960356 10.251378 22.960355 22.857955v31.220622H463.872v-31.220622c0-12.606578 10.296889-22.857956 22.960356-22.857955zM463.872 677.740089V612.238222h45.920711v65.501867a22.9376 22.9376 0 0 1-22.960355 22.857955c-12.663467 0-22.960356-10.24-22.960356-22.857955z" fill="" /></svg>